<?xml version="1.0" encoding="iso-8859-1"?>
<!-- Generator: Adobe Illustrator 19.0.0, SVG Export Plug-In . SVG Version: 6.00 Build 0)  -->
<svg xmlns="http://www.w3.org/2000/svg" xmlns:xlink="http://www.w3.org/1999/xlink" version="1.1" id="Layer_1" x="0px" y="0px" viewBox="0 0 511.999 511.999" style="enable-background:new 0 0 511.999 511.999;" xml:space="preserve" width="512px" height="512px">
<g>
	<g>
		<polygon points="411.151,287.03 387.878,287.03 124.12,287.03 100.848,287.03 77.575,287.03 77.575,333.575 100.848,333.575     124.12,333.575 209.454,333.575 302.545,333.575 387.878,333.575 411.151,333.575 434.423,333.575 434.423,287.03   " fill="#D80027"/>
	</g>
</g>
<g>
	<g>
		<path d="M411.151,380.121h-23.273h-62.061v46.545v23.273v23.273h85.333c12.853,0,23.273-10.418,23.273-23.273v-69.818H411.151z" fill="#D80027"/>
	</g>
</g>
<g>
	<g>
		<path d="M124.12,380.121h-23.273H77.575v69.818c0,12.854,10.42,23.273,23.273,23.273h85.333v-23.273v-23.273v-46.545H124.12z" fill="#D80027"/>
	</g>
</g>
<g>
	<g>
		<path d="M505.182,278.321L387.878,161.026V62.06c0-12.853-10.42-23.273-23.273-23.273c-12.853,0-23.273,10.42-23.273,23.273    v52.424l-68.886-68.881c-0.568-0.568-1.159-1.102-1.769-1.598c-1.218-0.995-2.515-1.846-3.866-2.554    c-1.351-0.711-2.757-1.278-4.197-1.705c-1.44-0.425-2.912-0.711-4.394-0.852c-6.676-0.639-13.574,1.596-18.686,6.709    L6.817,278.321c-9.089,9.089-9.089,23.823,0,32.912c9.087,9.09,23.823,9.087,32.912,0.002l24.204-24.205l13.642-13.643    l23.273-23.273l9.63-9.63h13.642h263.758h13.636l9.636,9.636l23.273,23.27l13.641,13.639l24.207,24.205    c4.546,4.544,10.499,6.816,16.455,6.816s11.914-2.273,16.457-6.817C514.271,302.146,514.271,287.408,505.182,278.321z     M157.023,193.939l46.545-46.545h104.847l46.55,46.545H157.023z" fill="#D80027"/>
	</g>
</g>
<g>
</g>
<g>
</g>
<g>
</g>
<g>
</g>
<g>
</g>
<g>
</g>
<g>
</g>
<g>
</g>
<g>
</g>
<g>
</g>
<g>
</g>
<g>
</g>
<g>
</g>
<g>
</g>
<g>
</g>
</svg>
