<?xml version="1.0" encoding="iso-8859-1"?>
<!-- Generator: Adobe Illustrator 16.0.0, SVG Export Plug-In . SVG Version: 6.00 Build 0)  -->
<!DOCTYPE svg PUBLIC "-//W3C//DTD SVG 1.1//EN" "http://www.w3.org/Graphics/SVG/1.1/DTD/svg11.dtd">
<svg xmlns="http://www.w3.org/2000/svg" xmlns:xlink="http://www.w3.org/1999/xlink" version="1.1" id="Capa_1" x="0px" y="0px" width="512px" height="512px" viewBox="0 0 593.495 593.495" style="enable-background:new 0 0 593.495 593.495;" xml:space="preserve">
<g>
	<g>
		<path d="M441.755,280.687c0,0-0.127,0.15-0.182,0.196c-0.145,0.3-0.363,0.549-0.581,0.772c-2.126,2.849-8.341,13.248-8.341,37.825    v114.736v33.809v55.97c0,22.869-13.393,28.084-22.042,29.083H210.175H180.15c-18.517,0-21.87-13.138-22.365-20.197v-64.855    v-67.862v-84.436c0-16.123-6.065-29.669-8.586-34.622c-2.29-2.462-2.512-7.155,6.215-16.272l0,0l130.087-136.062    c1.98-1.99,9.595-8.4,18.162,0.559L434.36,266.109c7.469,7.841,8.468,12.121,7.287,14.551L441.755,280.687L441.755,280.687z     M308.071,98.956c-11.912-11.921-22.488-3.38-25.241-0.736L101.998,279.052l0,0c-23.759,23.764,0,25.2,0,25.2h2.29    c3.584,0.127,17.659,1.962,17.659,23.66v218.733c0.459,11.676,4.884,42.759,38.974,42.759h261.973    c38.579,0,40.287-40.369,40.306-46.502V330.273c0-27.203,22.314-26.004,22.314-26.004h4.762    c3.434-0.036,21.715-1.199-0.563-23.514L308.071,98.956L308.071,98.956z" fill="#D80027"/>
		<path d="M581.497,272.574L334.015,21.703c-0.163-0.15-0.199-0.205-0.363-0.363c-31.306-31.714-59.617-11.594-68.939-3.18    L10.494,268.966c0,0-19.557,18.235-5.274,32.687l1.731,1.753c0,0,11.666,13.538,32.219-6.714L275.043,63.979l0.009-0.009    l1.299-1.263c4.916-4.625,23.714-19.38,44.089,1.254l233.126,236.256c0,0,18.771,19.435,31.837,6.569l5.179-5.116    c0,0,0-0.018,0.019-0.018C600.595,291.013,581.497,272.574,581.497,272.574L581.497,272.574z" fill="#D80027"/>
	</g>
</g>
<g>
</g>
<g>
</g>
<g>
</g>
<g>
</g>
<g>
</g>
<g>
</g>
<g>
</g>
<g>
</g>
<g>
</g>
<g>
</g>
<g>
</g>
<g>
</g>
<g>
</g>
<g>
</g>
<g>
</g>
</svg>
